<?xml version="1.0" encoding="UTF-8"?> <svg xmlns="http://www.w3.org/2000/svg" width="244" height="44" viewBox="0 0 244 44" fill="none"><path d="M19.2073 12.7764C15.5607 12.7764 12.5742 15.8032 12.5742 19.499V26.2217H19.2073C22.8854 26.2217 25.8405 23.1949 25.8405 19.499C25.8719 15.8032 22.8854 12.7764 19.2073 12.7764ZM19.2388 22.8126H15.9694V19.499C15.9694 17.683 17.4155 16.2174 19.2073 16.2174C20.9992 16.2174 22.4453 17.683 22.4453 19.499C22.4453 21.3151 20.9992 22.7807 19.2388 22.8126Z" fill="url(#paint0_linear_3823_202354)"></path><path fill-rule="evenodd" clip-rule="evenodd" d="M19.207 6.53174C12.1338 6.53174 6.38086 12.3623 6.38086 19.531V44.0002H9.77601V28.3246V19.531C9.77601 14.274 13.9885 9.97272 19.207 9.97272C24.394 9.97272 28.638 14.2421 28.638 19.531C28.638 24.7881 24.4255 29.0893 19.207 29.0893H12.5739V32.5303H19.207C26.2802 32.5303 32.0331 26.6997 32.0331 19.531C32.0331 12.3304 26.3117 6.53174 19.207 6.53174Z" fill="url(#paint1_linear_3823_202354)"></path><path fill-rule="evenodd" clip-rule="evenodd" d="M19.2078 0C8.61362 0 0 8.7299 0 19.4671C0 19.4989 0 19.5626 0 19.5945V40.3678C0.0314366 40.8139 0.282929 43.9681 3.61521 43.9681V30.8096V19.6264V19.4671C3.61521 10.7371 10.6256 3.66401 19.2078 3.66401C27.8214 3.66401 34.8003 10.769 34.8003 19.4671C34.8003 28.197 27.7899 35.2701 19.2078 35.2701H12.5746V38.9341H19.2078C29.8019 38.9341 38.4155 30.2042 38.4155 19.4671C38.4155 8.7299 29.8019 0 19.2078 0Z" fill="url(#paint2_linear_3823_202354)"></path><path opacity="0.4" d="M28.6383 19.5308C28.6383 24.7878 24.4258 29.0891 19.2073 29.0891H12.5742V32.53H19.2073C26.2806 32.53 32.0335 26.6995 32.0335 19.5308H28.6383Z" fill="url(#paint3_linear_3823_202354)"></path><path opacity="0.4" d="M19.2073 35.2701H12.5742V38.9341H19.2073C29.77 38.9341 38.3837 30.236 38.4151 19.5308H34.7999C34.7999 28.2288 27.7895 35.2701 19.2073 35.2701Z" fill="url(#paint4_linear_3823_202354)"></path><path fill-rule="evenodd" clip-rule="evenodd" d="M31.2161 43.9999H31.3419L31.2475 43.7769C29.4557 38.8066 24.7402 35.27 19.2073 35.27H12.5742V35.493V38.711V38.934H19.2073C22.7911 38.934 25.9348 40.9731 27.5066 43.9681H31.2161V43.9999Z" fill="url(#paint5_linear_3823_202354)"></path><path fill-rule="evenodd" clip-rule="evenodd" d="M34.1711 43.9998H37.9121C35.8687 35.4611 28.2925 29.0889 19.2388 29.0889H12.5742V32.7529H19.2073C26.2491 32.721 32.2221 37.4683 34.1711 43.9998Z" fill="url(#paint6_linear_3823_202354)"></path><path d="M215.092 11.1836H219.524L229.364 32.7535H226.032C225.686 32.7535 225.34 32.7216 225.026 32.626C224.711 32.5304 224.397 32.403 224.145 32.2437C223.862 32.0844 223.611 31.8614 223.391 31.6383C223.171 31.4153 222.982 31.1286 222.856 30.8418L221.756 28.4522H212.797L211.728 30.8418C211.602 31.0967 211.414 31.3516 211.193 31.6065C210.973 31.8295 210.722 32.0525 210.439 32.2118C210.156 32.3711 209.842 32.5304 209.527 32.626C209.213 32.7216 208.867 32.7535 208.553 32.7535H205.252L215.092 11.1836ZM214.903 23.9598H219.713L217.732 19.4356C217.638 19.2126 217.575 19.0214 217.512 18.8621C217.449 18.6709 217.418 18.5116 217.386 18.3842C217.355 18.2249 217.324 18.0656 217.324 17.9381C217.292 18.0656 217.261 18.2249 217.229 18.416C217.198 18.5435 217.166 18.7028 217.104 18.8939C217.041 19.0851 216.978 19.2763 216.883 19.4674L214.903 23.9598Z" fill="white"></path><path d="M229.049 32.7535V11.1836H234.204V28.1655H243.101V32.7853H229.049V32.7535Z" fill="white"></path><path d="M153.695 32.7535H148.539V11.1836H157.373C158.222 11.1836 159.007 11.2792 159.73 11.5022C160.454 11.7252 161.114 12.012 161.68 12.3625C162.245 12.7129 162.78 13.1271 163.22 13.6369C163.66 14.1148 164.037 14.6564 164.352 15.1981C164.666 15.7397 164.886 16.3451 165.043 16.9186C165.2 17.5239 165.263 18.0974 165.263 18.6709C165.263 19.2444 165.2 19.8179 165.075 20.3914C164.949 20.9649 164.729 21.5065 164.446 22.0482C164.163 22.5898 163.786 23.0996 163.346 23.6094C162.906 24.1191 162.34 24.5652 161.711 25.0113L167.715 32.7853H163.409H163.314C163.22 32.7853 163.063 32.7853 162.843 32.7535C162.623 32.7216 162.371 32.6579 162.088 32.5304C161.805 32.4349 161.522 32.2437 161.177 32.0207C160.862 31.7976 160.548 31.479 160.296 31.0967L156.524 26.1901H153.695V32.7535ZM157.656 21.2198C157.97 21.2198 158.284 21.1561 158.567 20.9968C158.85 20.8375 159.133 20.6463 159.353 20.4233C159.573 20.1684 159.762 19.9135 159.888 19.5949C160.013 19.2763 160.076 18.9895 160.076 18.6709C160.076 18.3523 160.013 18.0656 159.888 17.747C159.762 17.4283 159.573 17.1735 159.353 16.9186C159.133 16.6637 158.882 16.4725 158.567 16.3451C158.284 16.1858 157.97 16.122 157.656 16.122H153.695V21.2517H157.656V21.2198Z" fill="white"></path><path d="M172.62 24.0554C172.62 24.5971 172.746 25.1068 172.966 25.5848C173.186 26.0627 173.501 26.4769 173.909 26.8592C174.287 27.2097 174.758 27.4964 175.261 27.7194C175.764 27.9425 176.299 28.038 176.864 28.038C177.43 28.038 177.965 27.9425 178.468 27.7194C178.971 27.4964 179.442 27.2097 179.819 26.8592C180.228 26.5087 180.511 26.0627 180.763 25.5848C180.983 25.1068 181.108 24.5971 181.108 24.0554V11.1836H186.264V24.0873C186.264 25.3299 186.012 26.4769 185.509 27.5601C185.006 28.6434 184.346 29.5674 183.498 30.3958C182.649 31.1923 181.643 31.8295 180.511 32.3074C179.379 32.7853 178.153 33.0084 176.864 33.0084C176.016 33.0084 175.167 32.9128 174.381 32.6898C173.595 32.4667 172.841 32.18 172.149 31.7976C171.457 31.4153 170.829 30.9374 170.231 30.3958C169.665 29.8541 169.162 29.2488 168.754 28.5797C168.345 27.9106 168.031 27.2097 167.811 26.445C167.591 25.6803 167.465 24.8838 167.465 24.0873V11.1836H172.62V24.0554Z" fill="white"></path><path d="M193.777 32.7535H188.621V11.1836H197.455C198.304 11.1836 199.089 11.2792 199.813 11.5022C200.536 11.7252 201.196 12.012 201.762 12.3625C202.359 12.7129 202.862 13.1271 203.302 13.6369C203.742 14.1148 204.119 14.6564 204.434 15.1981C204.748 15.7397 204.968 16.3451 205.125 16.9186C205.282 17.5239 205.345 18.0974 205.345 18.6709C205.345 19.2444 205.282 19.8179 205.157 20.3914C205.031 20.9649 204.811 21.5065 204.528 22.0482C204.245 22.5898 203.868 23.0996 203.428 23.6094C202.988 24.1191 202.422 24.5652 201.793 25.0113L207.797 32.7853H203.491H203.396C203.302 32.7853 203.145 32.7853 202.925 32.7535C202.705 32.7216 202.453 32.6579 202.17 32.5304C201.887 32.4349 201.604 32.2437 201.259 32.0207C200.944 31.7976 200.63 31.479 200.347 31.0967L196.575 26.1901H193.745V32.7535H193.777ZM197.738 21.2198C198.052 21.2198 198.366 21.1561 198.649 20.9968C198.932 20.8375 199.215 20.6463 199.435 20.4233C199.655 20.1684 199.844 19.9135 199.97 19.5949C200.095 19.2763 200.158 18.9895 200.158 18.6709C200.158 18.3523 200.095 18.0656 199.97 17.747C199.844 17.4283 199.655 17.1735 199.435 16.9186C199.215 16.6637 198.964 16.4725 198.649 16.3451C198.366 16.1858 198.052 16.122 197.738 16.122H193.777V21.2517H197.738V21.2198Z" fill="white"></path><path d="M131.344 32.7215V11.2153H133.199V30.8417H142.912V32.7215H131.344Z" fill="white"></path><path d="M118.424 11.2153H119.996C120.782 13.0314 121.567 14.8475 122.322 16.6317C123.108 18.4159 123.862 20.2001 124.648 21.9843C125.403 23.7686 126.189 25.5528 126.943 27.337C127.698 29.1212 128.484 30.9054 129.269 32.7215H128.452C128.075 32.7215 127.76 32.6259 127.478 32.4347C127.195 32.2436 126.975 31.9887 126.817 31.6382L125.088 27.6237H113.394L111.696 31.6382C111.571 31.9568 111.351 32.2436 111.036 32.4347C110.722 32.6259 110.407 32.7215 110.03 32.7215H109.213L118.424 11.2153ZM114.18 25.7758H124.24L119.493 14.7519C119.43 14.6563 119.398 14.5289 119.367 14.3696C119.335 14.2103 119.304 14.0828 119.273 13.9554C119.241 13.7961 119.21 13.6686 119.21 13.5093C119.178 13.6686 119.178 13.7961 119.147 13.9554C119.115 14.0828 119.084 14.2103 119.053 14.3696C119.021 14.5289 118.99 14.6563 118.927 14.7519L114.18 25.7758Z" fill="white"></path><path d="M107.074 32.7215H105.251L92.4562 14.1465C92.3934 14.0828 92.3619 14.0191 92.3305 13.9235C92.2991 13.8279 92.2676 13.7642 92.2362 13.6686C92.2047 13.573 92.1733 13.4775 92.1419 13.4137V32.6896H90.2871V11.2153H91.576C91.9847 11.2153 92.2991 11.2791 92.5191 11.3746C92.7392 11.4702 92.9592 11.6295 93.1164 11.8526L104.842 28.8663C104.905 28.9619 104.968 29.0893 105.031 29.2168C105.094 29.3442 105.125 29.4398 105.157 29.5354C105.188 29.631 105.219 29.7584 105.251 29.8859V11.2153H107.074V32.7215Z" fill="white"></path><path d="M77.3674 11.2153H78.9392C79.7251 13.0314 80.511 14.8475 81.2655 16.6317C82.0514 18.4159 82.8059 20.2001 83.5918 21.9843C84.3463 23.7686 85.1322 25.5528 85.8867 27.337C86.6411 29.1212 87.4271 30.9054 88.213 32.7215H87.3642C86.9869 32.7215 86.6726 32.6259 86.3896 32.4347C86.1067 32.2436 85.8867 31.9887 85.7295 31.6382L84.0005 27.6237H72.3061L70.6085 31.6382C70.4827 31.9568 70.2627 32.2436 69.9483 32.4347C69.634 32.6259 69.3196 32.7215 68.9423 32.7215H68.125L77.3674 11.2153ZM73.1234 25.7758H83.1831L78.4362 14.7519C78.3733 14.6563 78.3419 14.5289 78.3105 14.3696C78.279 14.2103 78.2476 14.0828 78.2161 13.9554C78.1847 13.7961 78.1533 13.6686 78.1533 13.5093C78.1218 13.6686 78.1218 13.7961 78.0904 13.9554C78.059 14.0828 78.059 14.2103 77.9961 14.3696C77.9647 14.5289 77.9332 14.6563 77.8703 14.7519L73.1234 25.7758Z" fill="white"></path><path d="M50.8349 21.9524C50.8349 22.7807 50.9292 23.6091 51.1492 24.3738C51.3693 25.1385 51.6836 25.8713 52.0609 26.5403C52.4381 27.2094 52.9097 27.8466 53.4755 28.3883C54.0099 28.9299 54.6387 29.4078 55.2988 29.822C55.959 30.2362 56.6821 30.523 57.4365 30.746C58.191 30.969 59.0084 31.0646 59.8257 31.0646C60.7688 31.0646 61.6805 30.9053 62.5607 30.6185C63.4095 30.3318 64.2268 29.9495 64.9499 29.4397C65.0756 29.3441 65.2328 29.2804 65.39 29.2167C65.5472 29.1529 65.7044 29.1529 65.893 29.1529C66.1759 29.1529 66.4274 29.2167 66.6475 29.3122C66.8675 29.4078 67.0561 29.5353 67.2133 29.7264L67.3705 29.8857C66.396 30.8416 65.2642 31.6062 63.9753 32.1479C62.6864 32.6895 61.3032 32.9763 59.8572 32.9763C58.3482 32.9763 56.965 32.6895 55.6447 32.116C54.3243 31.5425 53.1926 30.746 52.2181 29.7583C51.2435 28.7706 50.4576 27.5918 49.8918 26.2536C49.3259 24.9154 49.043 23.4817 49.043 21.9842C49.043 20.4549 49.3259 19.0212 49.8918 17.7149C50.4576 16.3767 51.2435 15.2297 52.2181 14.2101C53.1926 13.2225 54.3558 12.4259 55.6447 11.8524C56.965 11.2789 58.3482 10.9922 59.8572 10.9922C61.3347 10.9922 62.7179 11.2789 64.0068 11.8206C65.2642 12.3622 66.396 13.1269 67.4019 14.0827L67.2448 14.2101C67.0561 14.4013 66.8675 14.5288 66.6475 14.6243C66.4274 14.7199 66.1759 14.7836 65.9244 14.7836C65.5786 14.7836 65.2642 14.6881 64.9813 14.4969C64.2583 13.9871 63.4724 13.6048 62.5921 13.318C61.7433 13.0313 60.8317 12.9038 59.8572 12.9038C59.0398 12.9038 58.2224 12.9994 57.468 13.2225C56.7135 13.4455 55.9905 13.7322 55.3303 14.1464C54.6701 14.5606 54.0728 15.0067 53.507 15.5802C52.9725 16.1218 52.501 16.759 52.0923 17.4281C51.7151 18.0972 51.4007 18.83 51.1807 19.5947C50.9606 20.3275 50.8349 21.124 50.8349 21.9524Z" fill="white"></path><defs><linearGradient id="paint0_linear_3823_202354" x1="1.76789" y1="19.5026" x2="37.1894" y2="19.5026" gradientUnits="userSpaceOnUse"><stop stop-color="#ABE344"></stop><stop offset="1" stop-color="#4BC3FA"></stop></linearGradient><linearGradient id="paint1_linear_3823_202354" x1="1.7733" y1="25.2759" x2="37.1948" y2="25.2759" gradientUnits="userSpaceOnUse"><stop stop-color="#ABE344"></stop><stop offset="1" stop-color="#4BC3FA"></stop></linearGradient><linearGradient id="paint2_linear_3823_202354" x1="3.29194e-07" y1="43.9681" x2="38.4155" y2="43.9681" gradientUnits="userSpaceOnUse"><stop stop-color="#AEE424"></stop><stop offset="1" stop-color="#24B0F4"></stop></linearGradient><linearGradient id="paint3_linear_3823_202354" x1="16.7044" y1="38.5334" x2="25.0839" y2="19.817" gradientUnits="userSpaceOnUse"><stop offset="0.4508" stop-color="#055697"></stop><stop offset="0.6233" stop-color="#1268AA" stop-opacity="0.6859"></stop><stop offset="0.8432" stop-color="#1E7ABC" stop-opacity="0.2854"></stop><stop offset="1" stop-color="#2280C3" stop-opacity="0"></stop></linearGradient><linearGradient id="paint4_linear_3823_202354" x1="20.7473" y1="40.3435" x2="29.1268" y2="21.6271" gradientUnits="userSpaceOnUse"><stop offset="0.4508" stop-color="#055697"></stop><stop offset="0.6233" stop-color="#1268AA" stop-opacity="0.6859"></stop><stop offset="0.8432" stop-color="#1E7ABC" stop-opacity="0.2854"></stop><stop offset="1" stop-color="#2280C3" stop-opacity="0"></stop></linearGradient><linearGradient id="paint5_linear_3823_202354" x1="35.0581" y1="44.5311" x2="9.54657" y2="34.2337" gradientUnits="userSpaceOnUse"><stop stop-color="#B2E545"></stop><stop offset="1" stop-color="#4AC9F8"></stop></linearGradient><linearGradient id="paint6_linear_3823_202354" x1="36.8953" y1="39.9794" x2="11.3838" y2="29.682" gradientUnits="userSpaceOnUse"><stop stop-color="#B2E545"></stop><stop offset="1" stop-color="#4AC7F8"></stop></linearGradient></defs></svg> 